<svg width="32" height="32" viewBox="0 0 32 32" fill="none" xmlns="http://www.w3.org/2000/svg">
<path d="M15.9418 25.4812C10.7675 25.4812 6.48177 22.1885 6.48177 16.0735C6.48177 10.7687 9.879 6.50905 15.8894 6.50905C18.555 6.50905 21.2989 7.65889 23.285 10.0892L20.5672 12.3627C19.3651 10.8993 17.7971 10.0108 15.8894 10.0108C12.7274 10.0108 10.3232 12.3627 10.3232 16.0735C10.3232 19.5231 12.6229 22.0056 15.9418 22.0056C17.8755 22.0056 19.4958 21.0387 20.6194 19.6537L23.3111 21.9794C21.7171 23.9655 19.2083 25.4812 15.9418 25.4812ZM15.9678 0.000793457C7.13441 0.000793457 -0.0264893 7.16169 -0.0264893 15.9951C-0.0264893 24.8286 7.13441 31.9894 15.9678 31.9894C24.8013 31.9894 31.9622 24.8286 31.9622 15.9951C31.9622 7.16169 24.8013 0.000793457 15.9678 0.000793457Z" fill="#FEBE2D"/>
<path d="M15.9418 25.4812C10.7675 25.4812 6.48177 22.1885 6.48177 16.0735C6.48177 10.7687 9.879 6.50905 15.8894 6.50905C18.555 6.50905 21.2989 7.65889 23.285 10.0892L20.5672 12.3627C19.3651 10.8993 17.7971 10.0108 15.8894 10.0108C12.7274 10.0108 10.3232 12.3627 10.3232 16.0735C10.3232 19.5231 12.6229 22.0056 15.9418 22.0056C17.8755 22.0056 19.4958 21.0387 20.6194 19.6537L23.3111 21.9794C21.7171 23.9655 19.2083 25.4812 15.9418 25.4812ZM15.9678 0.000793457C7.13441 0.000793457 -0.0264893 7.16169 -0.0264893 15.9951C-0.0264893 24.8286 7.13441 31.9894 15.9678 31.9894C24.8013 31.9894 31.9622 24.8286 31.9622 15.9951C31.9622 7.16169 24.8013 0.000793457 15.9678 0.000793457Z" stroke="white" stroke-width="0.00126263" stroke-miterlimit="10"/>
</svg>
