<svg width="94" height="32" viewBox="0 0 94 32" fill="none" xmlns="http://www.w3.org/2000/svg">
<g clip-path="url(#clip0_1884_75)">
<path d="M15.9418 25.4812C10.7675 25.4812 6.48177 22.1885 6.48177 16.0735C6.48177 10.7687 9.879 6.50905 15.8894 6.50905C18.555 6.50905 21.2989 7.65889 23.285 10.0892L20.5672 12.3627C19.3651 10.8993 17.7971 10.0108 15.8894 10.0108C12.7274 10.0108 10.3232 12.3627 10.3232 16.0735C10.3232 19.5231 12.6229 22.0056 15.9418 22.0056C17.8755 22.0056 19.4958 21.0387 20.6194 19.6537L23.3111 21.9794C21.7171 23.9655 19.2083 25.4812 15.9418 25.4812ZM15.9678 0.000793457C7.13441 0.000793457 -0.0264893 7.16169 -0.0264893 15.9951C-0.0264893 24.8286 7.13441 31.9894 15.9678 31.9894C24.8013 31.9894 31.9622 24.8286 31.9622 15.9951C31.9622 7.16169 24.8013 0.000793457 15.9678 0.000793457Z" fill="#FEBE2D"/>
<path d="M15.9418 25.4812C10.7675 25.4812 6.48177 22.1885 6.48177 16.0735C6.48177 10.7687 9.879 6.50905 15.8894 6.50905C18.555 6.50905 21.2989 7.65889 23.285 10.0892L20.5672 12.3627C19.3651 10.8993 17.7971 10.0108 15.8894 10.0108C12.7274 10.0108 10.3232 12.3627 10.3232 16.0735C10.3232 19.5231 12.6229 22.0056 15.9418 22.0056C17.8755 22.0056 19.4958 21.0387 20.6194 19.6537L23.3111 21.9794C21.7171 23.9655 19.2083 25.4812 15.9418 25.4812ZM15.9678 0.000793457C7.13441 0.000793457 -0.0264893 7.16169 -0.0264893 15.9951C-0.0264893 24.8286 7.13441 31.9894 15.9678 31.9894C24.8013 31.9894 31.9622 24.8286 31.9622 15.9951C31.9622 7.16169 24.8013 0.000793457 15.9678 0.000793457Z" stroke="white" stroke-width="0.00126263" stroke-miterlimit="10"/>
</g>
<path d="M48.26 23.12C50.76 23.12 52.64 21.96 53.86 20.44L52.08 18.92C51.18 20.04 49.86 20.86 48.26 20.86C45.56 20.86 43.62 18.86 43.62 15.94C43.62 12.94 45.52 10.92 48.22 10.92C49.72 10.92 50.98 11.56 52.04 12.86L53.82 11.36C52.34 9.54 50.3 8.64 48.22 8.64C43.66 8.64 41.1 11.9 41.1 15.94C41.1 20.6 44.4 23.12 48.26 23.12ZM59.4903 23.16C60.6103 23.16 61.6903 22.7 62.4703 21.76L62.5103 21.78V23H64.7503V13.24H62.5103V17.92C62.5103 20.02 61.3103 21.12 60.0103 21.12C58.6703 21.12 58.0703 20.52 58.0703 18.58V13.24H55.8303V19.18C55.8303 22.08 57.3303 23.16 59.4903 23.16ZM70.4928 23.16C71.7728 23.16 72.3928 22.9 72.9728 22.58L72.3928 20.64C71.8728 20.92 71.3328 21.06 70.9528 21.06C70.3128 21.06 70.0128 20.7 70.0128 19.7V15.14H72.8728V13.24H70.0128V9.76L67.7728 10V13.24H66.5728V15.14H67.7728V19.92C67.7728 22.1 68.8128 23.16 70.4928 23.16ZM74.8975 23H77.1375V18.38C77.1375 16.78 78.0975 15.56 79.7975 15.56C79.9575 15.56 80.2175 15.58 80.4775 15.6V13.1H80.1975C79.0175 13.1 77.9375 13.68 77.1775 14.7H77.1375V13.24H74.8975V23Z" fill="black"/>
<defs>
<clipPath id="clip0_1884_75">
<rect width="32" height="32" fill="white"/>
</clipPath>
</defs>
</svg>
